<svg width="424" height="261" viewBox="0 0 424 261" fill="none" xmlns="http://www.w3.org/2000/svg">
    <g filter="url(#filter0_d_7_28579)">
        <g clip-path="url(#clip0_7_28579)">
            <rect x="20" y="16" width="380" height="213" rx="32"
                fill="url(#paint0_linear_7_28579)" />
            <g opacity="0.5">
                <path opacity="0.25"
                    d="M450.421 -6.87396C446.685 -3.03462 442.643 0.472079 438.011 3.4798C426.933 10.6595 413.109 10.6596 402.031 18.5046C369.951 41.208 370.116 82.0824 358.024 118.799C339.015 176.514 305.921 165.897 261.644 171.122C227.408 175.155 188.021 195.253 187.739 242.794C187.562 273.814 217.131 294.355 194.303 317.128C181.481 329.921 158.688 321.979 143.98 327.731C123.65 335.673 112.419 350.338 103.474 367.719L450.397 366.887L450.421 -6.87396ZM374.323 91.2719C375.867 86.9891 376.81 82.4567 378.354 78.1599C379.768 74.2374 381.324 70.3842 382.667 66.4201C385.343 58.5058 388.159 50.9796 392.602 44.188C398.448 35.248 407.204 23.0646 417.811 24.3814C418.377 24.4507 418.884 25.2407 418.895 25.8783C418.907 30.7572 414.994 34.1391 412.19 37.0776C407.44 42.0396 402.773 47.2788 398.365 52.6567C393.321 58.8246 389.137 65.4222 386.509 73.4474C385.307 77.1065 384.364 80.932 382.962 84.4942C381.548 88.084 379.438 90.7037 377.058 93.4758C376.445 94.1826 375.655 94.044 375.137 93.5312C374.488 93.1847 373.958 92.2838 374.323 91.2719ZM296.128 186.341C298.391 182.571 303.953 181.254 307.383 183.361C308.502 184.04 309.469 185.204 310.082 186.576C311.838 189.044 311.425 192.758 309.174 194.685C306.805 196.722 302.963 197.498 300.158 196.473C296.505 195.128 293.535 190.651 296.128 186.341ZM203.012 249.738C199.429 241.006 201.044 230.639 206.018 223.168C209.306 218.22 213.619 213.729 217.532 209.446C221.02 205.635 224.733 202.086 228.74 199.037C236.494 193.132 245.215 189.03 254.349 187.297C263.895 185.481 273.618 186.673 283.188 187.45C284.142 187.533 284.908 187.962 285.486 188.6C288.868 190.748 288.09 195.891 285.509 198.58C282.268 201.948 277.743 202.045 273.818 203.597C269.328 205.371 265.227 208.531 261.491 211.927C252.982 219.661 246.087 229.724 239.04 239.191C233.795 246.232 228.174 255.421 220.455 258.9C213.336 262.088 206.194 257.5 203.012 249.738ZM178.888 294.078C173.137 300.842 163.803 300.842 158.051 294.078C152.3 287.314 152.3 276.337 158.051 269.573C163.803 262.809 173.137 262.809 178.888 269.573C184.639 276.337 184.639 287.314 178.888 294.078ZM329.716 134.323C317.059 149.209 296.54 149.209 283.883 134.323C271.226 119.436 271.226 95.3053 283.883 80.4192C296.54 65.5331 317.059 65.5331 329.716 80.4192C342.373 95.3053 342.373 119.436 329.716 134.323ZM355.974 68.1666C351.366 73.586 343.905 73.586 339.309 68.1666C334.701 62.7471 334.701 53.9734 339.309 48.5679C343.917 43.1484 351.377 43.1484 355.974 48.5679C360.57 53.9734 360.57 62.761 355.974 68.1666Z"
                    fill="white" />
                <path opacity="0.25"
                    d="M143.148 -7.29078C144.735 -5.42266 144.735 -2.3976 143.148 -0.540097C141.562 1.32802 138.993 1.32802 137.416 -0.540097C135.829 -2.40821 135.829 -5.43328 137.416 -7.29078C139.002 -9.1589 141.562 -9.1589 143.148 -7.29078ZM134.225 -54.5775C128.772 -48.1559 128.772 -37.7326 134.225 -31.311C139.678 -24.8893 148.529 -24.8893 153.982 -31.311C159.436 -37.7326 159.436 -48.1559 153.982 -54.5775C148.529 -60.9992 139.687 -61.0098 134.225 -54.5775ZM234.842 -103C229.569 -92.736 225.495 -82.3552 210.659 -77.6C190.766 -71.2314 170.675 -82.387 150.819 -81.0178C86.1292 -76.5385 139.372 -0.540084 112.683 35.7927C91.0866 65.2049 55.6187 48.0947 40.5032 87.3676C31.1562 111.643 30.2819 137.86 18.1318 161.424C7.0092 182.992 -8.0793 203.095 -30 206.683V179.383C-29.6845 179.404 -29.36 179.415 -29.0536 179.415C-21.969 179.447 -15.6776 174.702 -10.5129 169.416C-2.27464 160.988 4.82795 150.809 11.0472 140.28C14.1839 134.973 17.0592 129.729 18.6546 123.488C19.3757 120.665 22.287 106.059 21.0341 102.005C19.7903 97.9925 16.1488 95.4238 12.5795 96.411C5.30566 98.4171 6.33319 109.615 4.01674 115.952C0.303197 126.12 -7.48442 133.752 -16.1914 137.531C-20.8604 139.558 -25.6375 141.087 -29.991 143.592V-103H189.982C181.735 -99.8369 173.1 -97.5973 164.528 -96.8331C162.32 -96.642 162.23 -93.0226 163.987 -92.3751C166.169 -90.5388 168.638 -90.4433 171.216 -89.7003C173.019 -89.1802 190.226 -85.2316 196.382 -84.8177C204.007 -84.2976 213.228 -85.6774 219.114 -91.8868C221.241 -94.1371 223.17 -96.8755 223.062 -100.431C223.034 -101.302 222.89 -102.161 222.683 -103H234.842ZM30.6244 73.4947C28.966 67.3384 23.4768 65.1625 18.961 68.6864C17.0141 70.2043 15.2926 72.5819 15.1664 75.4053C15.0402 75.66 14.932 75.936 14.8599 76.2438C13.2465 82.5487 18.9791 86.8794 23.7382 86.3805C29.2273 85.7967 32.2559 79.5555 30.6244 73.4947Z"
                    fill="white" />
            </g>
        </g>
    </g>
    <defs>
        <filter id="filter0_d_7_28579" x="0" y="0" width="428" height="261"
            filterUnits="userSpaceOnUse" color-interpolation-filters="sRGB">
            <feFlood flood-opacity="0" result="BackgroundImageFix" />
            <feColorMatrix in="SourceAlpha" type="matrix"
                values="0 0 0 0 0 0 0 0 0 0 0 0 0 0 0 0 0 0 127 0" result="hardAlpha" />
            <feOffset dx="4" dy="8" />
            <feGaussianBlur stdDeviation="12" />
            <feComposite in2="hardAlpha" operator="out" />
            <feColorMatrix type="matrix"
                values="0 0 0 0 0.2 0 0 0 0 0.368627 0 0 0 0 0.968627 0 0 0 0.25 0" />
            <feBlend mode="normal" in2="BackgroundImageFix" result="effect1_dropShadow_7_28579" />
            <feBlend mode="normal" in="SourceGraphic" in2="effect1_dropShadow_7_28579"
                result="shape" />
        </filter>
        <linearGradient id="paint0_linear_7_28579" x1="210" y1="16" x2="210" y2="229"
            gradientUnits="userSpaceOnUse">
            <stop stop-color="#1788EF" />
            <stop offset="1" stop-color="#075BA9" />
        </linearGradient>
        <clipPath id="clip0_7_28579">
            <rect x="20" y="16" width="380" height="213" rx="32" fill="white" />
        </clipPath>
    </defs>
</svg>
