<svg width="25" height="22" viewBox="0 0 25 22" fill="none" xmlns="http://www.w3.org/2000/svg">
<path d="M8.93638 18.896V16.1441C8.93638 15.4416 9.50668 14.8721 10.2102 14.8721H12.7818C13.1196 14.8721 13.4436 15.0061 13.6825 15.2446C13.9214 15.4832 14.0556 15.8067 14.0556 16.1441V18.896C14.0535 19.1881 14.1682 19.4689 14.3742 19.6762C14.5803 19.8834 14.8607 20 15.1532 20H16.9076C17.727 20.0021 18.5136 19.6786 19.0938 19.1007C19.6739 18.5229 20 17.7383 20 16.92V9.08017C20 8.41921 19.7066 7.79226 19.1989 7.3682L13.2304 2.60828C12.1922 1.77371 10.7047 1.80065 9.69746 2.67228L3.86522 7.3682C3.3335 7.77976 3.0157 8.40857 3 9.08017V16.912C3 18.6175 4.3845 20 6.09237 20H7.80679C8.41426 20 8.90794 19.5106 8.91235 18.904L8.93638 18.896Z" stroke="#9E9E9E" stroke-width="1.5"/>
</svg>
