<svg width="25" height="24" viewBox="0 0 25 24" fill="none" xmlns="http://www.w3.org/2000/svg">
<path d="M9.31349 20.7733V17.7156C9.31349 16.9351 9.95088 16.3023 10.7371 16.3023H13.6113C13.9889 16.3023 14.351 16.4512 14.618 16.7163C14.885 16.9813 15.035 17.3408 15.035 17.7156V20.7733C15.0326 21.0978 15.1608 21.4099 15.3911 21.6402C15.6214 21.8705 15.9348 22 16.2617 22H18.2225C19.1383 22.0023 20.0175 21.6428 20.6659 21.0008C21.3143 20.3588 21.6787 19.487 21.6787 18.5778V9.86686C21.6787 9.13246 21.3508 8.43584 20.7833 7.96467L14.1127 2.67587C12.9524 1.74856 11.2898 1.7785 10.1641 2.74698L3.64572 7.96467C3.05145 8.42195 2.69626 9.12064 2.67871 9.86686V18.5689C2.67871 20.4639 4.22609 22 6.13488 22H8.051C8.72994 22 9.28171 21.4562 9.28663 20.7822L9.31349 20.7733Z" fill="url(#paint0_linear_139_1622)"/>
<defs>
<linearGradient id="paint0_linear_139_1622" x1="12.1787" y1="2" x2="12.1787" y2="22" gradientUnits="userSpaceOnUse">
<stop stop-color="#1788EF"/>
<stop offset="1" stop-color="#075BA9"/>
</linearGradient>
</defs>
</svg>
