<svg width="69" height="70" viewBox="0 0 69 70" fill="none" xmlns="http://www.w3.org/2000/svg">
    <g clip-path="url(#clip0_7_27932)">
        <path fill-rule="evenodd" clip-rule="evenodd"
            d="M38.0513 55.7214C39.868 55.7214 41.6103 56.443 42.8948 57.7276C44.1794 59.0122 44.9011 60.7545 44.9011 62.5711C44.9011 64.3878 44.1794 66.1301 42.8948 67.4146C41.6103 68.6992 39.868 69.4209 38.0513 69.4209C36.2347 69.4209 34.4924 68.6992 33.2078 67.4146C31.9232 66.1301 31.2016 64.3878 31.2016 62.5711C31.2016 60.7545 31.9232 59.0122 33.2078 57.7276C34.4924 56.443 36.2347 55.7214 38.0513 55.7214ZM16.615 45.4467C18.8859 45.4467 21.0637 46.3488 22.6694 47.9545C24.2751 49.5603 25.1772 51.7381 25.1772 54.0089C25.1772 56.2798 24.2751 58.4576 22.6694 60.0633C21.0637 61.669 18.8859 62.5711 16.615 62.5711C14.3442 62.5711 12.1664 61.669 10.5606 60.0633C8.95492 58.4576 8.05283 56.2798 8.05283 54.0089C8.05283 51.7381 8.95492 49.5603 10.5606 47.9545C12.1664 46.3488 14.3442 45.4467 16.615 45.4467ZM56.2682 47.1592C58.0849 47.1592 59.8272 47.8808 61.1118 49.1654C62.3963 50.45 63.118 52.1923 63.118 54.0089C63.118 55.8256 62.3963 57.5679 61.1118 58.8524C59.8272 60.137 58.0849 60.8587 56.2682 60.8587C54.4516 60.8587 52.7093 60.137 51.4247 58.8524C50.1402 57.5679 49.4185 55.8256 49.4185 54.0089C49.4185 52.1923 50.1402 50.45 51.4247 49.1654C52.7093 47.8808 54.4516 47.1592 56.2682 47.1592ZM63.7379 32.8398C65.1004 32.8398 66.4071 33.381 67.3705 34.3445C68.334 35.3079 68.8752 36.6146 68.8752 37.9771C68.8752 39.3396 68.334 40.6463 67.3705 41.6097C66.4071 42.5731 65.1004 43.1144 63.7379 43.1144C62.3754 43.1144 61.0687 42.5731 60.1053 41.6097C59.1418 40.6463 58.6006 39.3396 58.6006 37.9771C58.6006 36.6146 59.1418 35.3079 60.1053 34.3445C61.0687 33.381 62.3754 32.8398 63.7379 32.8398ZM8.93988 21.4726C11.2107 21.4726 13.3885 22.3747 14.9943 23.9804C16.6 25.5861 17.5021 27.764 17.5021 30.0348C17.5021 32.3056 16.6 34.4835 14.9943 36.0892C13.3885 37.6949 11.2107 38.597 8.93988 38.597C6.66904 38.597 4.49122 37.6949 2.88549 36.0892C1.27977 34.4835 0.377686 32.3056 0.377686 30.0348C0.377686 27.764 1.27977 25.5861 2.88549 23.9804C4.49122 22.3747 6.66904 21.4726 8.93988 21.4726ZM61.2925 18.7567C62.2009 18.7567 63.072 19.1175 63.7143 19.7598C64.3566 20.4021 64.7174 21.2732 64.7174 22.1815C64.7174 23.0899 64.3566 23.961 63.7143 24.6033C63.072 25.2456 62.2009 25.6064 61.2925 25.6064C60.3842 25.6064 59.5131 25.2456 58.8708 24.6033C58.2285 23.961 57.8677 23.0899 57.8677 22.1815C57.8677 21.2732 58.2285 20.4021 58.8708 19.7598C59.5131 19.1175 60.3842 18.7567 61.2925 18.7567ZM27.7767 0.92334C30.5017 0.92334 33.1151 2.00584 35.042 3.93271C36.9688 5.85958 38.0513 8.47297 38.0513 11.198C38.0513 13.923 36.9688 16.5364 35.042 18.4632C33.1151 20.3901 30.5017 21.4726 27.7767 21.4726C25.0517 21.4726 22.4383 20.3901 20.5114 18.4632C18.5846 16.5364 17.5021 13.923 17.5021 11.198C17.5021 8.47297 18.5846 5.85958 20.5114 3.93271C22.4383 2.00584 25.0517 0.92334 27.7767 0.92334V0.92334ZM53.4633 11.198C53.9174 11.198 54.353 11.3784 54.6742 11.6995C54.9953 12.0207 55.1757 12.4562 55.1757 12.9104C55.1757 13.3646 54.9953 13.8001 54.6742 14.1213C54.353 14.4424 53.9174 14.6228 53.4633 14.6228C53.0091 14.6228 52.5735 14.4424 52.2524 14.1213C51.9313 13.8001 51.7508 13.3646 51.7508 12.9104C51.7508 12.4562 51.9313 12.0207 52.2524 11.6995C52.5735 11.3784 53.0091 11.198 53.4633 11.198Z"
            fill="url(#paint0_linear_7_27932)" />
    </g>
    <defs>
        <linearGradient id="paint0_linear_7_27932" x1="34.6265" y1="0.92334" x2="34.6265"
            y2="69.4209" gradientUnits="userSpaceOnUse">
            <stop stop-color="#1788EF" />
            <stop offset="1" stop-color="#075BA9" />
        </linearGradient>
        <clipPath id="clip0_7_27932">
            <rect width="68.4975" height="68.4975" fill="white"
                transform="translate(0.37793 0.923096)" />
        </clipPath>
    </defs>
</svg>
