<svg width="322" height="321" viewBox="0 0 322 321" fill="none" xmlns="http://www.w3.org/2000/svg">
<g clip-path="url(#clip0_28_431)">
<path d="M321.111 160.3C321.131 177.814 318.273 195.213 312.652 211.801C312.33 212.749 312 213.694 311.662 214.635C305.71 231.096 297.102 246.472 286.181 260.152C282.921 264.241 279.466 268.162 275.817 271.914C272.168 275.672 268.338 279.246 264.326 282.638C241.946 301.616 214.76 314.047 185.765 318.558H185.76C182.064 319.131 178.332 319.578 174.563 319.899C170.075 320.278 165.534 320.469 160.938 320.472C139.57 320.5 118.413 316.239 98.7212 307.94C79.0297 299.641 61.2043 287.474 46.3012 272.16C45.2539 271.089 44.2224 270.002 43.2067 268.9C40.6762 266.156 38.242 263.327 35.9042 260.412C34.5915 258.773 33.3104 257.108 32.061 255.418C24.3646 245.02 17.9613 233.725 12.9919 221.781C10.8727 216.695 9.02198 211.5 7.44744 206.219C7.33371 205.845 7.22471 205.47 7.11572 205.096C6.87878 204.29 6.64974 203.48 6.42859 202.665C2.65891 188.859 0.754349 174.611 0.765675 160.3C0.765675 71.8398 72.4785 0.126953 160.938 0.126953C249.398 0.126953 321.111 71.8398 321.111 160.3Z" fill="#F2F2F2"/>
<path d="M304.013 227.196C304.805 228.2 305.625 229.2 306.444 230.205C303.62 236.003 300.446 241.625 296.938 247.037C296.678 246.852 296.417 246.667 296.156 246.483C296.115 246.46 296.076 246.435 296.038 246.407C295.066 245.715 294.09 245.033 293.119 244.341V244.336C292.317 241.609 291.87 238.79 291.787 235.948C292.288 235.833 292.742 235.567 293.086 235.186C293.431 234.804 293.65 234.326 293.714 233.816C293.777 233.306 293.682 232.788 293.442 232.334C293.202 231.88 292.827 231.51 292.37 231.276C292.242 231.053 292.152 230.892 292.024 230.664C292.029 230.608 292.038 230.546 292.043 230.489C292.787 224.57 300.331 222.504 304.013 227.196Z" fill="white"/>
<path d="M312.518 206.912C313.087 208.475 313.605 210.057 314.072 211.655C313.75 212.603 313.42 213.548 313.082 214.489C312.954 213.991 312.821 213.494 312.684 212.996C311.913 210.23 310.987 207.508 309.912 204.845C309.03 202.661 308.054 200.522 306.983 198.429C301.159 187.059 292.72 177.233 282.36 169.759C278.078 168.769 274.203 166.49 271.257 163.229C270.194 162.057 269.305 160.739 268.617 159.315C269.053 159.253 269.489 159.168 269.916 159.078C270.048 159.049 270.186 159.016 270.319 158.988L270.371 158.978C270.837 158.87 271.262 158.63 271.595 158.286C271.928 157.942 272.154 157.509 272.246 157.039C272.339 156.57 272.294 156.083 272.117 155.639C271.94 155.194 271.638 154.81 271.247 154.533C271.006 154.358 270.759 154.187 270.518 154.017C270.148 153.747 269.774 153.491 269.399 153.225C269.36 153.201 269.322 153.174 269.285 153.145C268.859 152.841 268.432 152.548 268.011 152.24C268.338 151.184 268.904 150.217 269.665 149.415C272.314 146.681 277.043 146.743 280.133 148.97C283.227 151.197 284.781 155.097 284.981 158.898C285.156 162.153 284.455 165.376 283.53 168.518C283.763 168.688 284.004 168.849 284.237 169.025C288.503 172.186 292.449 175.759 296.017 179.692C293.956 174.801 293.207 168.423 293.743 164.03C294.354 159.026 296.785 154.273 298.775 149.538C301.159 143.852 309.291 143.776 311.584 149.501C311.608 149.557 311.632 149.61 311.651 149.666C311.267 150.05 310.897 150.448 310.542 150.861C310.096 151.38 309.817 152.022 309.741 152.703C309.666 153.384 309.798 154.071 310.121 154.676C310.443 155.28 310.94 155.773 311.547 156.09C312.154 156.407 312.843 156.533 313.523 156.452L313.594 156.443C313.889 158.132 314.057 159.842 314.096 161.556C314.155 166.353 313.222 171.111 311.356 175.53C309.491 179.95 306.732 183.937 303.253 187.241C303.026 187.454 302.803 187.662 302.571 187.866C304.766 190.988 306.738 194.261 308.471 197.661C310.009 200.658 311.361 203.748 312.518 206.912Z" fill="white"/>
<path d="M68.6954 95.8675C68.4474 97.3732 68.5326 98.9148 68.9449 100.384C69.3572 101.853 70.0866 103.214 71.0817 104.371C72.0769 105.528 73.3136 106.452 74.7046 107.079C76.0957 107.706 77.6074 108.021 79.1332 108L104.701 182.397L121.016 171.185L89.5219 96.6725C89.3178 94.1115 88.1815 91.7144 86.3282 89.9353C84.4748 88.1562 82.0333 87.1188 79.4662 87.0196C76.899 86.9203 74.3847 87.7662 72.3996 89.397C70.4144 91.0277 69.0965 93.33 68.6954 95.8675Z" fill="#A0616A"/>
<path d="M202.144 121.039C190.79 133.957 162.793 156.723 139.729 172.399C134.744 175.787 129.986 178.839 125.678 181.393C122.768 183.118 120.063 184.611 117.627 185.829C115.992 186.643 114.207 187.111 112.383 187.203C110.559 187.296 108.735 187.01 107.026 186.365C105.318 185.72 103.76 184.729 102.452 183.455C101.144 182.18 100.114 180.649 99.425 178.957L83.4551 140.322L88.9806 136.658L102.605 127.621L105.699 125.574L118.475 156.002L131.948 145.188L140.312 138.473L178.44 107.875L181.729 106.898L189.401 114.386L194.827 119.684L199.931 120.57C200.694 120.703 201.433 120.859 202.144 121.039Z" fill="url(#paint0_linear_28_431)"/>
<path d="M221.209 162.457L219.778 260.745L104.169 257.428L122.631 216.674C122.499 215.366 130.735 206.187 130.687 204.827C130.545 200.841 133.521 197.15 134.005 192.979C134.99 184.378 129.346 151.898 131.948 145.188C133.056 142.192 134.476 139.32 136.185 136.62C137.663 134.384 139.179 132.877 140.63 132.332L144.904 122.371L148.695 116.684L178.441 107.875L181.73 106.898L189.402 114.386L194.828 119.684L199.931 120.57C200.694 120.703 201.434 120.859 202.144 121.039C205.568 121.829 208.759 123.409 211.461 125.655C220.37 133.223 221.408 147.458 221.209 162.457Z" fill="url(#paint1_linear_28_431)"/>
<path d="M287.602 260.006C284.342 264.095 280.887 268.016 277.238 271.768L264.737 271.777L197.507 271.853L185.404 271.867L177.358 271.877L165.388 271.886L156.18 271.896L139.172 271.915L129.14 271.929L108.014 271.948L97.9302 271.962L69.9853 271.99L52.4326 272.009L47.7222 272.014C46.6749 270.943 45.6434 269.856 44.6277 268.754C42.0972 266.01 39.663 263.181 37.3252 260.266L47.0777 260.257L53.7216 260.252L69.1039 260.233L98.788 260.205L108.82 260.195L112.877 260.191H112.891L116.075 260.186L117.502 260.181L121.155 260.176H122.7L133.533 260.167L156.9 260.139L167.184 260.129L177.031 260.12L186.262 260.11L199.507 260.096L270.249 260.025L287.602 260.006Z" fill="#CCCCCC"/>
<path d="M153.729 265.365C153.163 265.365 152.604 265.238 152.093 264.995L60.8607 267.323C60.1606 266.991 59.5776 266.455 59.1886 265.785C58.7996 265.115 58.623 264.343 58.682 263.571C58.7411 262.798 59.033 262.062 59.5193 261.459C60.0056 260.856 60.6633 260.415 61.4057 260.193L121.092 242.397C121.71 242.213 122.365 242.188 122.995 242.324L215.32 253.577C216.137 253.753 216.874 254.193 217.418 254.827C217.962 255.462 218.284 256.257 218.333 257.091C218.383 257.926 218.158 258.753 217.694 259.448C217.229 260.143 216.549 260.666 215.759 260.939L154.979 265.155C154.577 265.294 154.155 265.365 153.729 265.365Z" fill="#3F3D56"/>
<path d="M157.086 259.015C156.674 259.015 156.269 258.909 155.91 258.708L81.8158 262.17C81.395 261.934 81.0551 261.577 80.8402 261.145C80.6254 260.713 80.5456 260.226 80.6112 259.748C80.6768 259.27 80.8848 258.823 81.2082 258.465C81.5315 258.107 81.9551 257.855 82.4239 257.741L109.247 251.231C109.666 251.129 110.104 251.142 110.516 251.268L179.397 251.185C179.887 251.335 180.317 251.638 180.622 252.05C180.928 252.462 181.094 252.96 181.096 253.473C181.098 253.986 180.935 254.486 180.632 254.9C180.33 255.314 179.902 255.62 179.413 255.774L157.803 258.905C157.571 258.978 157.329 259.015 157.086 259.015Z" fill="#2F2E41"/>
<path d="M149.287 255.064C150.569 255.89 152.017 256.426 153.529 256.633C155.041 256.839 156.58 256.712 158.037 256.259C159.495 255.807 160.835 255.041 161.964 254.014C163.093 252.988 163.983 251.726 164.572 250.318L242.998 256.479L239.207 237.05L158.316 236.279C155.885 235.447 153.234 235.535 150.864 236.527C148.494 237.519 146.571 239.345 145.458 241.661C144.345 243.976 144.12 246.62 144.826 249.09C145.531 251.56 147.119 253.686 149.287 255.064Z" fill="#A0616A"/>
<path d="M148.656 265.375C147.221 265.374 145.802 265.086 144.48 264.53L59.9197 266.459C57.688 265.528 55.8354 263.872 54.6615 261.758C53.4877 259.644 53.061 257.196 53.4507 254.81L50.3086 180.547C50.7253 177.894 52.1214 175.494 54.2214 173.821C56.3213 172.147 58.9724 171.322 61.6511 171.508L140.156 174.764C141.663 174.863 143.132 175.277 144.469 175.981C145.805 176.684 146.979 177.66 147.914 178.846C148.849 180.032 149.524 181.402 149.896 182.865C150.267 184.329 150.327 185.854 150.071 187.343L159.269 256.42C158.836 258.923 157.535 261.193 155.594 262.831C153.652 264.469 151.195 265.37 148.656 265.375Z" fill="#3F3D56"/>
<path d="M195.609 128.531C195.609 128.531 207.456 119.053 221.673 136.113C231.26 147.618 249.755 217.168 251.288 245.989C251.385 247.812 251.105 249.636 250.464 251.347C249.823 253.057 248.835 254.616 247.564 255.927C246.292 257.237 244.763 258.271 243.073 258.963C241.383 259.656 239.568 259.991 237.743 259.95L195.941 259.222L191.267 232.945L224.27 233.336L195.609 128.531Z" fill="url(#paint2_linear_28_431)"/>
<path d="M127.654 112.425L127.628 112.428C126.261 112.555 124.899 112.134 123.843 111.257C122.786 110.381 122.121 109.12 121.994 107.753L119.299 78.9884C118.811 73.8354 119.364 68.6369 120.926 63.7021C123.986 54.0706 130.646 45.9918 139.516 41.1492C144.096 38.6554 149.134 37.1147 154.326 36.6201C175.565 34.5966 183.327 39.0201 196.447 71.4133C209.566 103.807 199.146 100.222 199.146 100.222C199.211 100.915 199.137 101.614 198.926 102.278C198.513 103.573 197.616 104.659 196.422 105.308C195.809 105.64 195.135 105.846 194.441 105.913C169.332 112.295 143.996 119.013 127.649 112.426L127.654 112.425Z" fill="#2F2E41"/>
<path d="M174.39 63.8731C177.542 68.5366 179.241 74.0296 179.273 79.6584C179.305 85.2871 177.669 90.799 174.57 95.498C171.471 100.197 167.049 103.872 161.863 106.06C156.676 108.247 150.958 108.849 145.43 107.788C141.771 107.098 138.285 105.689 135.174 103.641C132.063 101.594 129.39 98.9504 127.308 95.8627C124.163 91.2007 122.468 85.7118 122.438 80.0881C122.408 74.4643 124.043 68.9576 127.138 64.2621C130.234 59.5666 134.65 55.8926 139.83 53.7034C145.01 51.5142 150.722 50.9077 156.247 51.9605C159.909 52.6465 163.399 54.0529 166.513 56.098C169.628 58.1431 172.305 60.7863 174.39 63.8741L174.39 63.8731Z" fill="#9E616A"/>
<path d="M110.396 82.1837C110.011 78.1083 110.449 73.9969 111.684 70.094C111.97 60.5466 114.74 51.8989 126.385 52.2619C129.984 50.3037 133.941 49.0896 138.019 48.6918L143.774 48.1235C143.838 48.1171 143.903 48.1108 143.968 48.1048C147.954 47.7338 151.975 48.1516 155.801 49.3345C159.626 50.5174 163.181 52.4421 166.262 54.9989C169.344 57.5556 171.891 60.6942 173.76 64.2355C175.628 67.7769 176.781 71.6515 177.152 75.6383L177.206 76.2145L165.031 77.4047L159.792 66.1918L160.05 77.894L153.762 78.5112L151.12 72.854L151.249 78.7542C141.913 86.9768 127.755 87.4078 110.456 82.7604L110.396 82.1837Z" fill="#2F2E41"/>
<path d="M149.34 109.479C149.236 110.427 149.401 111.385 149.814 112.244C150.023 112.683 150.292 113.092 150.614 113.457C150.889 113.768 151.201 114.046 151.541 114.284C152.55 114.986 153.775 115.306 154.999 115.186C155.075 115.178 155.151 115.169 155.227 115.158C155.303 115.147 155.378 115.135 155.454 115.12C155.53 115.107 155.606 115.091 155.681 115.073C155.757 115.055 155.832 115.036 155.908 115.015L160.157 113.825L164.919 100.547L166.011 112.198L185.332 106.819L180.7 57.376L147.768 60.621L148.671 61.4906C151.672 64.4115 153.809 68.1037 154.846 72.1609C155.876 76.2722 156.194 80.5295 155.786 84.7482C155.405 89.0139 154.615 93.2332 153.428 97.348C152.394 100.992 151.151 104.573 149.705 108.073C149.518 108.522 149.395 108.996 149.34 109.479Z" fill="#2F2E41"/>
<path d="M84.4451 44.2792L49.155 44.1797C48.209 44.1786 47.3012 44.5526 46.6306 45.2197C45.9599 45.8868 45.5811 46.7926 45.5772 47.7386L45.4492 94.4683C45.4472 95.4132 45.8204 96.3204 46.4868 96.9903C47.1533 97.6603 48.0584 98.0383 49.0034 98.0414L68.5795 98.0982L84.2982 98.1409C85.2439 98.1426 86.1516 97.7687 86.8217 97.1013C87.4917 96.4339 87.8693 95.5277 87.8713 94.582L87.8808 91.8193L88.004 47.857C88.0059 46.9108 87.6322 46.0026 86.9649 45.3317C86.2976 44.6609 85.3913 44.2823 84.4451 44.2792Z" fill="#E6E6E6"/>
<path d="M81.9586 47.0697L51.63 46.9844C50.7444 46.9833 49.8944 47.3333 49.2664 47.9577C48.6384 48.5822 48.2836 49.4302 48.2797 50.3158L48.1944 80.36C48.1884 84.3056 49.7477 88.0925 52.5301 90.89C55.3125 93.6875 59.0908 95.2672 63.0364 95.2826L68.7988 95.2968L81.8259 95.3348C82.7118 95.3367 83.5622 94.9869 84.1904 94.3623C84.8186 93.7377 85.1732 92.8892 85.1763 92.0034L85.1857 88.98L85.29 50.42C85.2919 49.5342 84.9422 48.6837 84.3175 48.0555C83.6929 47.4274 82.8445 47.0728 81.9586 47.0697Z" fill="white"/>
<path d="M78.5514 80.0762H54.9046C54.5282 80.0762 54.1672 80.2257 53.901 80.4919C53.6349 80.758 53.4854 81.119 53.4854 81.4955C53.4854 81.8719 53.6349 82.2329 53.901 82.499C54.1672 82.7652 54.5282 82.9147 54.9046 82.9147H78.5514C78.9279 82.9147 79.2889 82.7652 79.555 82.499C79.8212 82.2329 79.9707 81.8719 79.9707 81.4955C79.9707 81.119 79.8212 80.758 79.555 80.4919C79.2889 80.2257 78.9279 80.0762 78.5514 80.0762Z" fill="url(#paint3_linear_28_431)"/>
<path d="M78.55 73.8398H54.9032C54.5274 73.8398 54.167 73.9891 53.9013 74.2549C53.6356 74.5206 53.4863 74.881 53.4863 75.2568C53.4863 75.6325 53.6356 75.9929 53.9013 76.2587C54.167 76.5244 54.5274 76.6737 54.9032 76.6737H78.55C78.9258 76.6737 79.2862 76.5244 79.552 76.2587C79.8177 75.9929 79.967 75.6325 79.967 75.2568C79.967 74.881 79.8177 74.5206 79.552 74.2549C79.2862 73.9891 78.9258 73.8398 78.55 73.8398Z" fill="url(#paint4_linear_28_431)"/>
<path d="M78.5514 67.5986H54.9046C54.7182 67.5986 54.5337 67.6353 54.3615 67.7067C54.1893 67.778 54.0328 67.8825 53.901 68.0143C53.7692 68.1461 53.6647 68.3026 53.5934 68.4748C53.5221 68.647 53.4854 68.8315 53.4854 69.0179C53.4854 69.2043 53.5221 69.3889 53.5934 69.5611C53.6647 69.7332 53.7692 69.8897 53.901 70.0215C54.0328 70.1533 54.1893 70.2578 54.3615 70.3292C54.5337 70.4005 54.7182 70.4372 54.9046 70.4372H78.5514C78.9279 70.4372 79.2889 70.2877 79.555 70.0215C79.8212 69.7553 79.9707 69.3943 79.9707 69.0179C79.9707 68.6415 79.8212 68.2805 79.555 68.0143C79.2889 67.7482 78.9279 67.5986 78.5514 67.5986Z" fill="url(#paint5_linear_28_431)"/>
<path d="M60.1031 59.8184H54.9046C54.5282 59.8184 54.1672 59.9679 53.9011 60.2341C53.6349 60.5002 53.4854 60.8612 53.4854 61.2376C53.4854 61.6141 53.6349 61.9751 53.9011 62.2412C54.1672 62.5074 54.5282 62.6569 54.9046 62.6569H60.1031C60.4796 62.6569 60.8406 62.5074 61.1067 62.2412C61.3729 61.9751 61.5224 61.6141 61.5224 61.2376C61.5224 60.8612 61.3729 60.5002 61.1067 60.2341C60.8406 59.9679 60.4796 59.8184 60.1031 59.8184Z" fill="url(#paint6_linear_28_431)"/>
<path d="M73.9551 64.8369C72.2946 64.8369 70.6714 64.3446 69.2908 63.422C67.9102 62.4995 66.8341 61.1883 66.1986 59.6543C65.5632 58.1202 65.3969 56.4321 65.7209 54.8035C66.0448 53.175 66.8444 51.679 68.0186 50.5049C69.1927 49.3308 70.6886 48.5312 72.3172 48.2072C73.9458 47.8833 75.6338 48.0495 77.1679 48.685C78.702 49.3204 80.0132 50.3965 80.9357 51.7771C81.8582 53.1578 82.3506 54.7809 82.3506 56.4414C82.3481 58.6673 81.4627 60.8012 79.8888 62.3752C78.3149 63.9491 76.181 64.8344 73.9551 64.8369ZM73.9551 48.6293C72.41 48.6293 70.8996 49.0875 69.6149 49.9459C68.3302 50.8043 67.3289 52.0244 66.7377 53.4518C66.1464 54.8793 65.9917 56.4501 66.2931 57.9655C66.5945 59.4809 67.3385 60.8729 68.4311 61.9654C69.5236 63.0579 70.9156 63.802 72.431 64.1034C73.9464 64.4048 75.5171 64.2501 76.9446 63.6589C78.3721 63.0676 79.5922 62.0663 80.4506 60.7816C81.309 59.4969 81.7672 57.9865 81.7672 56.4414C81.7648 54.3703 80.941 52.3846 79.4765 50.9201C78.0119 49.4555 76.0263 48.6317 73.9551 48.6293Z" fill="url(#paint7_linear_28_431)"/>
<path d="M77.4819 59.6931C76.902 56.6991 75.6942 53.862 73.9381 51.3688C73.8985 51.3042 73.843 51.2508 73.7768 51.2137C73.7107 51.1767 73.6361 51.1572 73.5603 51.1572C73.4845 51.1572 73.41 51.1767 73.3438 51.2137C73.2776 51.2508 73.2221 51.3042 73.1825 51.3688C71.6531 54.0439 70.6755 56.9984 70.3075 60.0578C70.2395 60.6156 71.1152 60.6107 71.1826 60.0578C71.3056 59.0663 71.4973 58.0846 71.7563 57.1197C71.7899 57.1131 71.8226 57.1031 71.8541 57.0898C73.0178 56.5055 74.3324 56.2914 75.6214 56.4763C75.6326 56.478 75.6434 56.4755 75.6546 56.4766C76.0803 57.5962 76.4093 58.7501 76.638 59.9258C76.7448 60.4781 77.5884 60.2443 77.4819 59.6931ZM72.0713 56.0465C72.473 54.8003 72.9844 53.5922 73.5995 52.4364C74.2505 53.431 74.8158 54.4792 75.2893 55.5696C74.1945 55.4873 73.0952 55.6502 72.0713 56.0465Z" fill="url(#paint8_linear_28_431)"/>
</g>
<defs>
<linearGradient id="paint0_linear_28_431" x1="142.8" y1="106.898" x2="142.8" y2="187.22" gradientUnits="userSpaceOnUse">
<stop stop-color="#1788EF"/>
<stop offset="1" stop-color="#075BA9"/>
</linearGradient>
<linearGradient id="paint1_linear_28_431" x1="162.7" y1="106.898" x2="162.7" y2="260.745" gradientUnits="userSpaceOnUse">
<stop stop-color="#1788EF"/>
<stop offset="1" stop-color="#075BA9"/>
</linearGradient>
<linearGradient id="paint2_linear_28_431" x1="221.287" y1="125.905" x2="221.287" y2="259.953" gradientUnits="userSpaceOnUse">
<stop stop-color="#1788EF"/>
<stop offset="1" stop-color="#075BA9"/>
</linearGradient>
<linearGradient id="paint3_linear_28_431" x1="66.728" y1="80.0762" x2="66.728" y2="82.9147" gradientUnits="userSpaceOnUse">
<stop stop-color="#1788EF"/>
<stop offset="1" stop-color="#075BA9"/>
</linearGradient>
<linearGradient id="paint4_linear_28_431" x1="66.7266" y1="73.8398" x2="66.7266" y2="76.6737" gradientUnits="userSpaceOnUse">
<stop stop-color="#1788EF"/>
<stop offset="1" stop-color="#075BA9"/>
</linearGradient>
<linearGradient id="paint5_linear_28_431" x1="66.728" y1="67.5986" x2="66.728" y2="70.4372" gradientUnits="userSpaceOnUse">
<stop stop-color="#1788EF"/>
<stop offset="1" stop-color="#075BA9"/>
</linearGradient>
<linearGradient id="paint6_linear_28_431" x1="57.5039" y1="59.8184" x2="57.5039" y2="62.6569" gradientUnits="userSpaceOnUse">
<stop stop-color="#1788EF"/>
<stop offset="1" stop-color="#075BA9"/>
</linearGradient>
<linearGradient id="paint7_linear_28_431" x1="73.9551" y1="48.0459" x2="73.9551" y2="64.8369" gradientUnits="userSpaceOnUse">
<stop stop-color="#1788EF"/>
<stop offset="1" stop-color="#075BA9"/>
</linearGradient>
<linearGradient id="paint8_linear_28_431" x1="73.8975" y1="51.1572" x2="73.8975" y2="60.4743" gradientUnits="userSpaceOnUse">
<stop stop-color="#1788EF"/>
<stop offset="1" stop-color="#075BA9"/>
</linearGradient>
<clipPath id="clip0_28_431">
<rect width="320.346" height="320.346" fill="white" transform="translate(0.765625 0.126953)"/>
</clipPath>
</defs>
</svg>
