<svg width="302" height="341" viewBox="0 0 302 341" fill="none" xmlns="http://www.w3.org/2000/svg">
<g clip-path="url(#clip0_28_343)">
<path d="M146.787 226.448C146.298 227.035 145.641 227.458 144.904 227.659C144.167 227.861 143.385 227.831 142.666 227.574C141.946 227.317 141.323 226.846 140.88 226.224C140.438 225.601 140.198 224.858 140.193 224.095C139.98 223.774 139.827 223.544 139.614 223.224C137.751 222.514 135.717 222.377 133.775 222.829C131.832 223.281 130.069 224.302 128.712 225.761C127.354 227.22 126.464 229.051 126.155 231.019C125.846 232.987 126.133 235.002 126.978 236.806C131.643 247.022 135.702 258.442 146.033 264.005C103.967 251.087 71.6815 213.065 65.2253 169.684C67.2707 161.18 65.9111 151.54 60.559 144.48C58.9518 148.147 53.4803 149.563 52.448 144.766C52.1521 142.824 51.8731 140.882 51.577 138.94C30.5095 139.25 36.7722 168.172 62.7878 170.404C64.1008 178.617 66.27 186.67 69.2599 194.432C63.9969 188.477 57.3933 183.855 49.9922 180.945C42.9392 178.404 35.0025 178.451 27.3845 177.92C18.1106 177.264 12.6084 188.281 18.9284 195.082C23.8027 192.333 29.9448 196.991 26.6236 202.188C40.4259 212.6 59.7048 214.945 75.7287 208.589C83.7405 223.617 94.8678 236.767 108.369 247.162C91.8514 235.822 73.9302 248.31 58.0608 253.995C56.9726 254.286 55.9927 254.886 55.2405 255.724C54.4883 256.561 53.9964 257.599 53.8248 258.711C53.6531 259.822 53.8092 260.96 54.274 261.985C54.7388 263.009 55.4921 263.877 56.4421 264.481C58.4453 263.526 60.5386 262.772 62.691 262.231C63.7063 261.983 64.7734 262.055 65.7462 262.437C66.719 262.818 67.5497 263.491 68.1246 264.363C68.6994 265.234 68.9902 266.262 68.9572 267.305C68.9241 268.348 68.5687 269.356 67.9398 270.189C86.7344 277.151 109.038 271.22 122.42 256.457C129.865 260.645 137.726 264.049 145.876 266.614L165.815 244.773C165.644 244.473 165.457 244.174 165.278 243.883C163.56 246.02 161.586 247.94 159.4 249.598C157.942 238.476 158.483 231.394 146.787 226.447L146.787 226.448Z" fill="#F2F2F2"/>
<path d="M193.995 252.115C194.669 252.475 195.437 252.619 196.196 252.528C196.955 252.437 197.667 252.115 198.237 251.606C198.806 251.097 199.206 250.426 199.38 249.683C199.555 248.94 199.496 248.161 199.213 247.452C199.289 247.075 199.344 246.805 199.419 246.427C200.878 245.068 202.709 244.175 204.679 243.862C206.648 243.549 208.667 243.831 210.475 244.671C212.284 245.511 213.8 246.871 214.829 248.577C215.859 250.283 216.354 252.257 216.253 254.246C215.791 265.465 216.346 277.57 208.879 286.614C242.958 258.805 258.497 211.431 248.09 168.822C242.983 161.716 240.601 152.276 242.891 143.722C245.765 146.513 251.367 145.763 250.511 140.932C250.051 139.022 249.576 137.118 249.117 135.209C268.745 127.56 273.87 156.705 250.619 168.571C252.506 176.672 253.539 184.947 253.701 193.262C256.326 185.765 260.696 178.996 266.451 173.514C272.024 168.504 279.392 165.558 286.246 162.197C294.587 158.096 303.844 166.226 300.56 174.905C295.008 174.196 291.079 180.823 296.118 184.385C287.268 199.227 270.299 208.66 253.058 208.81C251.314 225.745 245.976 242.115 237.399 256.828C248.413 240.104 269.727 244.919 286.572 244.207C287.69 244.066 288.824 244.253 289.837 244.745C290.85 245.237 291.698 246.013 292.276 246.978C292.855 247.943 293.14 249.056 293.097 250.18C293.054 251.304 292.684 252.391 292.032 253.309C289.816 253.179 287.593 253.269 285.395 253.578C284.361 253.731 283.4 254.2 282.643 254.919C281.886 255.639 281.371 256.575 281.168 257.599C280.965 258.623 281.084 259.684 281.508 260.638C281.933 261.592 282.642 262.391 283.54 262.926C268.763 276.453 245.867 279.361 227.896 270.729C222.583 277.412 216.589 283.526 210.01 288.971L183.294 276.254C183.34 275.912 183.4 275.565 183.455 275.227C185.854 276.56 188.407 277.594 191.057 278.307C188.207 267.457 185.031 261.102 193.994 252.115H193.995Z" fill="#F2F2F2"/>
<path d="M218.04 340.483H179.879L173.479 308.887L171.403 340.483H135.955C135.969 315.67 137.263 290.874 139.833 266.195L140.272 264.7L140.966 262.309L141.406 260.809L148.741 235.654L149.321 233.657H193.493C196.035 236.042 198.379 238.627 200.503 241.389C201.223 242.305 201.974 243.297 202.745 244.365C203.28 245.122 203.834 245.917 204.388 246.75C209.309 254.067 212.988 262.145 215.276 270.658V270.665C215.665 272.121 216.008 273.611 216.308 275.135V275.141C216.575 276.496 216.811 277.869 216.995 279.274C217.136 280.298 217.257 281.335 217.346 282.384C217.877 288.196 217.69 294.052 216.792 299.819L218.04 340.483Z" fill="#2F2E41"/>
<path d="M40.2635 183.758C41.4618 182.352 40.7927 179.818 38.7691 178.098C36.7454 176.378 34.1336 176.123 32.9353 177.529C31.737 178.935 32.4061 181.469 34.4297 183.189C36.4534 184.909 39.0652 185.164 40.2635 183.758Z" fill="#E6E6E6"/>
<path d="M49.8674 176.327C51.1204 175.21 51.5055 173.599 50.7275 172.729C49.9495 171.859 48.303 172.058 47.05 173.175C45.797 174.292 45.4119 175.903 46.1899 176.773C46.9679 177.644 48.6144 177.444 49.8674 176.327Z" fill="#FF6584"/>
<path d="M77.2336 173.757C78.4866 172.64 78.8717 171.029 78.0937 170.159C77.3157 169.288 75.6693 169.488 74.4162 170.605C73.1632 171.722 72.7782 173.333 73.5561 174.203C74.3341 175.073 75.9806 174.874 77.2336 173.757Z" fill="#E6E6E6"/>
<path d="M64.9617 173.476C66.16 172.07 65.4909 169.536 63.4673 167.816C61.4437 166.096 58.8318 165.841 57.6335 167.247C56.4353 168.652 57.1043 171.186 59.128 172.907C61.1516 174.627 63.7635 174.881 64.9617 173.476Z" fill="#FF6584"/>
<path d="M25.4738 169.734C26.7269 168.618 27.1119 167.007 26.3339 166.136C25.5559 165.266 23.9095 165.466 22.6565 166.582C21.4035 167.699 21.0184 169.31 21.7964 170.181C22.5744 171.051 24.2208 170.851 25.4738 169.734Z" fill="#3F3D56"/>
<path d="M21.8865 158.26C23.0848 156.854 22.4157 154.32 20.3921 152.6C18.3685 150.88 15.7566 150.625 14.5583 152.031C13.3601 153.437 14.0292 155.971 16.0528 157.691C18.0764 159.411 20.6883 159.666 21.8865 158.26Z" fill="#3F3D56"/>
<path d="M151.919 134.157C152.679 134.08 153.397 133.772 153.977 133.274C154.556 132.776 154.967 132.112 155.156 131.372C155.345 130.633 155.301 129.853 155.031 129.139C154.761 128.425 154.278 127.811 153.647 127.381C153.5 127.025 153.394 126.77 153.246 126.415C153.698 124.475 154.719 122.714 156.18 121.357C157.64 120.001 159.473 119.111 161.444 118.801C163.414 118.491 165.432 118.777 167.239 119.62C169.046 120.463 170.56 121.826 171.586 123.534C177.466 133.104 184.686 142.844 183.537 154.509C196.301 112.449 182.749 64.4703 150.32 34.8935C142.113 31.8378 134.865 25.3277 131.99 16.9513C135.934 17.6683 140.166 13.9268 136.758 10.3923C135.31 9.06284 133.853 7.74703 132.405 6.41745C144.429 -10.8605 164.956 10.4805 152.28 33.2765C158.369 38.9511 163.846 45.2457 168.624 52.0578C166.617 44.3721 166.466 36.3204 168.182 28.565C170.011 21.3035 174.483 14.7555 178.296 8.14865C182.931 0.100242 195.155 1.69539 197.274 10.729C192.269 13.2315 192.708 20.9208 198.879 21.0719C199.819 38.3202 191 55.5993 176.771 65.3228C184.779 80.3524 189.487 96.9138 190.582 113.903C190.387 93.8877 210.77 86.0176 224.356 76.0476C225.205 75.3085 226.251 74.8322 227.367 74.6768C228.482 74.5214 229.619 74.6936 230.638 75.1723C231.658 75.6511 232.516 76.4158 233.107 77.373C233.699 78.3303 233.999 79.4388 233.97 80.5633C232.058 81.6893 230.263 83.0022 228.61 84.4826C227.838 85.1852 227.301 86.1093 227.075 87.1282C226.849 88.1472 226.944 89.2111 227.347 90.174C227.75 91.137 228.441 91.952 229.326 92.5072C230.211 93.0624 231.246 93.3307 232.29 93.2754C227.576 112.732 210.192 127.894 190.455 130.734C189.775 139.24 188.213 147.652 185.792 155.836L156.513 160.154C156.36 159.844 156.216 159.523 156.073 159.212C158.809 158.982 161.505 158.419 164.104 157.535C155.68 150.115 149.495 146.608 151.918 134.157L151.919 134.157Z" fill="#F2F2F2"/>
<path d="M181.367 124.782C168.037 124.782 160.807 123.156 158.282 119.684C156.054 116.62 157.548 112.578 159.277 107.898C160.52 104.534 161.929 100.721 161.929 96.9474C161.929 78.5935 171.249 69.2871 189.628 69.2871C198.773 69.2871 208.592 74.1381 215.894 82.2637C222.532 89.6507 225.839 98.4917 224.966 106.52C224.251 113.103 221.182 117.433 215.309 120.146L214.965 120.305L214.868 119.94C214.36 118.05 213.502 116.272 212.337 114.7C212.224 117.168 211.6 119.587 210.506 121.804L210.444 121.931L210.308 121.969C203.661 123.86 195.771 124.373 189.64 124.607C186.656 124.723 183.899 124.782 181.367 124.782Z" fill="#2F2E41"/>
<path d="M185 150.354C184.489 148.854 183.627 147.498 182.486 146.397C181.345 145.297 179.958 144.484 178.439 144.026C176.921 143.568 175.315 143.479 173.754 143.765C172.194 144.051 170.725 144.704 169.468 145.671L125.623 171.848L111.903 138.418C113.062 136.72 113.653 134.7 113.591 132.646C113.529 130.592 112.817 128.61 111.557 126.985C110.297 125.361 108.555 124.176 106.579 123.601C104.603 123.026 102.496 123.091 100.56 123.786C98.6234 124.481 96.9571 125.771 95.8 127.47C94.643 129.169 94.0545 131.191 94.1191 133.245C94.1836 135.299 94.8978 137.279 96.1593 138.903C97.4208 140.526 99.1647 141.709 101.141 142.281C101.987 151.921 106.686 195.008 123.035 193.442C136.777 192.126 170.904 169.43 181.503 161.56C183.199 160.303 184.451 158.54 185.08 156.526C185.708 154.512 185.68 152.351 185 150.354Z" fill="#FFB6B6"/>
<path d="M94.8049 164.468C96.0579 163.351 96.443 161.74 95.665 160.87C94.887 159.999 93.2405 160.199 91.9875 161.316C90.7345 162.433 90.3494 164.044 91.1274 164.914C91.9054 165.784 93.5519 165.585 94.8049 164.468Z" fill="#3F3D56"/>
<path d="M45.5539 159.999C46.8069 158.882 47.192 157.271 46.414 156.401C45.636 155.53 43.9896 155.73 42.7366 156.847C41.4835 157.964 41.0985 159.575 41.8765 160.445C42.6545 161.316 44.3009 161.116 45.5539 159.999Z" fill="#E6E6E6"/>
<path d="M174.921 129.891L195.944 128.81L205.709 144.217C205.709 144.217 224.081 147.285 222.808 168.904C221.534 190.524 200.454 209.495 200.454 209.495L201.355 220.754L199.79 225.219L199.99 227.727L202.125 230.382L202.345 233.128L200.454 237.473L203.026 241.634L148.943 236.401L146.966 229.207L149.851 225.344L148.239 220.305L150.662 215.458L151.925 200.063C151.925 200.063 138.105 179.329 153.97 163.713L160.338 152.903L167.463 144.222L174.921 129.891Z" fill="url(#paint0_linear_28_343)"/>
<path d="M3.79153 109.736C4.92848 109.467 5.53656 107.927 5.14972 106.294C4.76288 104.662 3.5276 103.557 2.39066 103.826C1.25371 104.095 0.645628 105.636 1.03247 107.268C1.41931 108.9 2.65458 110.005 3.79153 109.736Z" fill="#3F3D56"/>
<path d="M3.97805 89.8817C5.115 89.613 5.7231 88.0721 5.33626 86.44C4.94942 84.8079 3.71413 83.7027 2.57718 83.9714C1.44023 84.2402 0.832152 85.7811 1.21899 87.4131C1.60583 89.0452 2.84111 90.1504 3.97805 89.8817Z" fill="#E6E6E6"/>
<path d="M185.371 125.541C197.674 125.541 207.648 115.581 207.648 103.295C207.648 91.0094 197.674 81.0498 185.371 81.0498C173.068 81.0498 163.095 91.0094 163.095 103.295C163.095 115.581 173.068 125.541 185.371 125.541Z" fill="#FFB6B6"/>
<path d="M182.388 101.946C180.469 101.946 178.55 101.892 176.632 101.784L176.29 101.765L176.335 101.425C176.617 99.302 176.458 97.1433 175.868 95.0841C174.865 97.4288 173.373 99.5331 171.491 101.256L171.385 101.354L171.242 101.338C166.034 100.769 160.874 99.8294 155.8 98.5258L155.606 98.4761L155.567 98.2799C155.188 96.4217 154.992 94.531 154.981 92.6347C154.981 86.711 157.132 81.7253 161.038 78.5959C165.288 75.1896 171.381 74.142 178.201 75.6445H200.007C202.404 75.6472 204.702 76.5993 206.397 78.2921C208.093 79.9849 209.046 82.28 209.049 84.6739V98.4634L208.811 98.5255C200.186 100.789 191.306 101.939 182.388 101.946Z" fill="#2F2E41"/>
<path d="M13.0037 78.1561C15.4819 77.1981 16.95 75.0259 16.2826 73.3043C15.6152 71.5827 13.0652 70.9637 10.5869 71.9216C8.10865 72.8796 6.64061 75.0519 7.30798 76.7735C7.97534 78.4951 10.5254 79.1141 13.0037 78.1561Z" fill="#FF6584"/>
<path d="M31.1782 68.6151C32.3152 68.3464 32.9233 66.8055 32.5364 65.1734C32.1496 63.5413 30.9143 62.4361 29.7774 62.7048C28.6404 62.9736 28.0323 64.5145 28.4192 66.1465C28.806 67.7786 30.0413 68.8838 31.1782 68.6151Z" fill="#E6E6E6"/>
<path d="M14.7437 64.6288C15.8806 64.3601 16.4887 62.8191 16.1019 61.1871C15.715 59.555 14.4798 58.4498 13.3428 58.7185C12.2059 58.9872 11.5978 60.5281 11.9846 62.1602C12.3715 63.7923 13.6067 64.8975 14.7437 64.6288Z" fill="#FF6584"/>
<path d="M15.7097 51.5721C18.188 50.6141 19.656 48.4419 18.9886 46.7203C18.3213 44.9987 15.7712 44.3797 13.293 45.3377C10.8147 46.2957 9.34667 48.4679 10.014 50.1895C10.6814 51.9111 13.2314 52.5301 15.7097 51.5721Z" fill="#E6E6E6"/>
<path d="M170.444 50.9141C172.103 50.0994 172.497 47.5084 171.324 45.1271C170.152 42.7458 167.856 41.4758 166.197 42.2905C164.538 43.1052 164.144 45.6961 165.317 48.0774C166.49 50.4588 168.785 51.7288 170.444 50.9141Z" fill="#3F3D56"/>
<path d="M32.1616 46.3475C33.2986 46.0788 33.9067 44.5379 33.5198 42.9058C33.133 41.2737 31.8977 40.1685 30.7608 40.4373C29.6238 40.706 29.0157 42.2469 29.4026 43.879C29.7894 45.511 31.0247 46.6163 32.1616 46.3475Z" fill="#3F3D56"/>
<path d="M46.9138 47.5731C49.3921 46.6151 50.8601 44.4429 50.1927 42.7213C49.5254 40.9997 46.9753 40.3807 44.4971 41.3386C42.0188 42.2966 40.5508 44.4689 41.2181 46.1905C41.8855 47.9121 44.4355 48.5311 46.9138 47.5731Z" fill="#3F3D56"/>
<path d="M30.3863 77.203C29.4101 77.5595 28.6154 78.2882 28.1766 79.229C27.7377 80.1699 27.6905 81.2462 28.0453 82.2218L51.5693 146.679C51.9263 147.654 52.6559 148.447 53.5981 148.886C54.5403 149.324 55.6181 149.371 56.5951 149.017L147.896 115.79C148.872 115.433 149.666 114.704 150.105 113.763C150.544 112.823 150.591 111.746 150.237 110.771L126.713 46.3135C126.356 45.3387 125.626 44.5451 124.684 44.1068C123.742 43.6685 122.664 43.6213 121.687 43.9756L30.3863 77.203Z" fill="#CCCCCC"/>
<path d="M113.915 124.601L58.0292 144.939C56.9777 145.321 55.8177 145.27 54.8037 144.798C53.7896 144.326 53.0043 143.472 52.6201 142.423L31.2841 83.9609C30.9021 82.9109 30.9529 81.7524 31.4253 80.7398C31.8976 79.7271 32.7529 78.9429 33.8035 78.5592L119.945 47.2094C120.996 46.8281 122.156 46.8788 123.171 47.3505C124.185 47.8222 124.97 48.6764 125.354 49.7256L135.664 77.9739C138.96 87.0376 138.521 97.0369 134.444 105.778C130.367 114.519 122.984 121.288 113.915 124.601Z" fill="white"/>
<path d="M73.7026 82.3683L60.4223 87.2014C60.2558 87.262 60.0789 87.2893 59.9018 87.2816C59.7247 87.274 59.5509 87.2316 59.3902 87.1568C59.2295 87.0821 59.0852 86.9765 58.9654 86.846C58.8455 86.7156 58.7526 86.5628 58.6919 86.3965C58.6312 86.2302 58.604 86.0536 58.6116 85.8767C58.6193 85.6999 58.6617 85.5263 58.7366 85.3658C58.8114 85.2054 58.9172 85.0612 59.0478 84.9416C59.1785 84.8219 59.3314 84.7291 59.498 84.6685L72.7782 79.8354C73.1146 79.713 73.4858 79.729 73.8103 79.88C74.1349 80.0309 74.386 80.3044 74.5086 80.6403C74.6312 80.9762 74.6151 81.3469 74.464 81.671C74.3128 81.995 74.039 82.2459 73.7026 82.3683H73.7026Z" fill="url(#paint1_linear_28_343)"/>
<path d="M105.362 76.714L62.3116 92.3814C62.145 92.4423 61.968 92.4697 61.7908 92.4622C61.6135 92.4548 61.4395 92.4124 61.2787 92.3377C61.1178 92.263 60.9733 92.1574 60.8533 92.0269C60.7334 91.8964 60.6404 91.7435 60.5796 91.5771C60.5189 91.4106 60.4916 91.2339 60.4993 91.0569C60.507 90.8799 60.5496 90.7062 60.6246 90.5456C60.6996 90.3851 60.8056 90.2409 60.9364 90.1213C61.0673 90.0017 61.2205 89.909 61.3872 89.8485L104.437 74.1811C104.604 74.1205 104.781 74.0932 104.958 74.1009C105.135 74.1085 105.309 74.1509 105.47 74.2257C105.63 74.3004 105.775 74.406 105.894 74.5365C106.014 74.6669 106.107 74.8197 106.168 74.986C106.229 75.1523 106.256 75.3289 106.248 75.5058C106.241 75.6826 106.198 75.8562 106.123 76.0167C106.048 76.1771 105.943 76.3213 105.812 76.4409C105.681 76.5606 105.528 76.6534 105.362 76.714Z" fill="url(#paint2_linear_28_343)"/>
<path d="M107.533 82.6587L64.4829 98.3262C64.3164 98.3868 64.1395 98.414 63.9624 98.4064C63.7853 98.3987 63.6114 98.3563 63.4508 98.2816C63.2901 98.2068 63.1457 98.1012 63.0259 97.9708C62.9061 97.8403 62.8132 97.6876 62.7525 97.5213C62.6918 97.355 62.6645 97.1783 62.6722 97.0015C62.6798 96.8246 62.7223 96.651 62.7971 96.4906C62.872 96.3301 62.9777 96.186 63.1084 96.0663C63.239 95.9467 63.392 95.8539 63.5585 95.7933L106.609 80.1258C106.945 80.0039 107.316 80.0203 107.64 80.1713C107.964 80.3223 108.215 80.5957 108.338 80.9313C108.46 81.2669 108.444 81.6373 108.293 81.9612C108.142 82.2851 107.869 82.536 107.533 82.6587Z" fill="url(#paint3_linear_28_343)"/>
<path d="M109.703 88.6056L66.6524 104.273C66.4858 104.334 66.3088 104.361 66.1316 104.354C65.9544 104.346 65.7803 104.304 65.6195 104.229C65.4586 104.155 65.3141 104.049 65.1941 103.919C65.0742 103.788 64.9812 103.635 64.9205 103.469C64.8597 103.302 64.8324 103.125 64.8401 102.949C64.8479 102.772 64.8904 102.598 64.9654 102.437C65.0404 102.277 65.1464 102.133 65.2773 102.013C65.4081 101.893 65.5613 101.801 65.728 101.74L108.778 86.0727C108.945 86.0121 109.122 85.9848 109.299 85.9925C109.476 86.0001 109.65 86.0425 109.81 86.1173C109.971 86.192 110.115 86.2976 110.235 86.4281C110.355 86.5585 110.448 86.7113 110.509 86.8776C110.569 87.0439 110.597 87.2205 110.589 87.3974C110.581 87.5742 110.539 87.7478 110.464 87.9083C110.389 88.0687 110.283 88.2129 110.153 88.3325C110.022 88.4522 109.869 88.545 109.703 88.6056Z" fill="url(#paint4_linear_28_343)"/>
<path d="M111.87 94.5509L68.8198 110.218C68.4835 110.341 68.1122 110.325 67.7877 110.174C67.4632 110.023 67.212 109.749 67.0894 109.413C66.9668 109.078 66.9829 108.707 67.134 108.383C67.2852 108.059 67.5591 107.808 67.8954 107.685L110.946 92.018C111.112 91.9574 111.289 91.9301 111.466 91.9378C111.643 91.9454 111.817 91.9878 111.978 92.0626C112.138 92.1373 112.283 92.2429 112.403 92.3734C112.522 92.5038 112.615 92.6566 112.676 92.8229C112.737 92.9892 112.764 93.1658 112.756 93.3427C112.749 93.5195 112.706 93.6931 112.631 93.8536C112.557 94.0141 112.451 94.1582 112.32 94.2779C112.19 94.3975 112.037 94.4903 111.87 94.5509H111.87Z" fill="url(#paint5_linear_28_343)"/>
<path d="M248.469 111.063L224.898 167.388C223.893 169.771 221.989 171.664 219.598 172.658C217.207 173.652 214.521 173.668 212.118 172.701C210.876 172.201 209.748 171.454 208.804 170.504C207.86 169.555 207.119 168.423 206.627 167.179C206.136 165.934 205.903 164.603 205.943 163.265C205.983 161.928 206.296 160.613 206.862 159.4L233.142 101.641L247.629 65.873C246.377 64.6262 245.54 63.0247 245.231 61.2863C244.923 59.5478 245.157 57.7565 245.904 56.1559C246.65 54.5553 247.871 53.2228 249.402 52.3396C250.933 51.4564 252.699 51.0653 254.461 51.2193C256.222 51.3734 257.893 52.0651 259.247 53.2006C260.601 54.3362 261.572 55.8603 262.028 57.5661C262.485 59.272 262.404 61.0767 261.797 62.7351C261.191 64.3935 260.088 65.8253 258.638 66.8358L248.469 111.063Z" fill="#FFB6B6"/>
<path d="M146.501 35.3174C148.095 34.7896 149.09 33.464 148.722 32.3565C148.354 31.2491 146.764 30.7792 145.17 31.307C143.576 31.8348 142.581 33.1605 142.949 34.2679C143.317 35.3754 144.907 35.8452 146.501 35.3174Z" fill="#E6E6E6"/>
<path d="M168.799 34.3448C170.393 33.8169 171.388 32.4913 171.02 31.3839C170.652 30.2764 169.062 29.8065 167.468 30.3343C165.873 30.8622 164.879 32.1878 165.247 33.2952C165.615 34.4027 167.205 34.8726 168.799 34.3448Z" fill="#3F3D56"/>
<path d="M149.036 18.6201C150.631 18.0923 151.625 16.7667 151.257 15.6592C150.889 14.5518 149.299 14.0819 147.705 14.6097C146.111 15.1376 145.116 16.4632 145.484 17.5706C145.852 18.6781 147.442 19.148 149.036 18.6201Z" fill="#FF6584"/>
<path d="M163.722 20.2246C165.381 19.4099 165.775 16.819 164.603 14.4376C163.43 12.0563 161.134 10.7863 159.475 11.601C157.816 12.4157 157.422 15.0066 158.595 17.388C159.768 19.7693 162.064 21.0393 163.722 20.2246Z" fill="#E6E6E6"/>
<path d="M136.968 19.8633C138.626 19.0486 139.021 16.4577 137.848 14.0763C136.675 11.695 134.379 10.425 132.721 11.2397C131.062 12.0544 130.668 14.6453 131.84 17.0267C133.013 19.408 135.309 20.678 136.968 19.8633Z" fill="#FF6584"/>
<path d="M103.081 11.6778C104.675 11.15 105.67 9.82432 105.302 8.71688C104.934 7.60943 103.344 7.13955 101.75 7.66737C100.156 8.19518 99.1614 9.52081 99.529 10.6283C99.8967 11.7357 101.487 12.2056 103.081 11.6778Z" fill="#3F3D56"/>
<path d="M122.904 10.1221C124.498 9.59429 125.492 8.26867 125.124 7.16122C124.757 6.05378 123.166 5.58388 121.572 6.11169C119.978 6.6395 118.984 7.96515 119.351 9.0726C119.719 10.18 121.309 10.6499 122.904 10.1221Z" fill="#E6E6E6"/>
</g>
<defs>
<linearGradient id="paint0_linear_28_343" x1="184.609" y1="128.81" x2="184.609" y2="241.634" gradientUnits="userSpaceOnUse">
<stop stop-color="#1788EF"/>
<stop offset="1" stop-color="#075BA9"/>
</linearGradient>
<linearGradient id="paint1_linear_28_343" x1="66.6003" y1="79.7539" x2="66.6003" y2="87.2829" gradientUnits="userSpaceOnUse">
<stop stop-color="#1788EF"/>
<stop offset="1" stop-color="#075BA9"/>
</linearGradient>
<linearGradient id="paint2_linear_28_343" x1="83.3737" y1="74.0996" x2="83.3737" y2="92.4635" gradientUnits="userSpaceOnUse">
<stop stop-color="#1788EF"/>
<stop offset="1" stop-color="#075BA9"/>
</linearGradient>
<linearGradient id="paint3_linear_28_343" x1="85.545" y1="80.0449" x2="85.545" y2="98.4076" gradientUnits="userSpaceOnUse">
<stop stop-color="#1788EF"/>
<stop offset="1" stop-color="#075BA9"/>
</linearGradient>
<linearGradient id="paint4_linear_28_343" x1="87.7146" y1="85.9912" x2="87.7146" y2="104.355" gradientUnits="userSpaceOnUse">
<stop stop-color="#1788EF"/>
<stop offset="1" stop-color="#075BA9"/>
</linearGradient>
<linearGradient id="paint5_linear_28_343" x1="89.8827" y1="91.9365" x2="89.8827" y2="110.3" gradientUnits="userSpaceOnUse">
<stop stop-color="#1788EF"/>
<stop offset="1" stop-color="#075BA9"/>
</linearGradient>
<clipPath id="clip0_28_343">
<rect width="300.324" height="340.367" fill="white" transform="translate(0.916016 0.116211)"/>
</clipPath>
</defs>
</svg>
