<svg width="381" height="301" viewBox="0 0 381 301" fill="none" xmlns="http://www.w3.org/2000/svg">
<g clip-path="url(#clip0_28_394)">
<path d="M59.2296 219.067L35.1226 210.645C32.4686 197.501 33.0637 183.909 36.8563 171.047C46.0016 193.061 74.5252 199.215 90.3625 217.033C95.2595 222.628 98.8344 229.253 100.822 236.418C102.81 243.582 103.16 251.101 101.847 258.419L106.463 275.93C94.5367 274.562 83.0491 270.626 72.7912 264.392C62.5334 258.158 53.7491 249.775 47.0438 239.819C43.3374 234.197 40.3538 228.131 38.1635 221.764C48.5696 221.026 59.2296 219.067 59.2296 219.067Z" fill="#F2F2F2"/>
<path d="M86.9072 166.489L70.0725 147.291C74.2357 134.545 81.4479 123.007 91.083 113.68C88.2013 137.342 109.996 156.742 115.006 180.047C116.512 187.328 116.361 194.854 114.563 202.068C112.765 209.283 109.366 216 104.619 221.722L100.013 239.235C90.3067 232.173 82.2469 223.092 76.3889 212.616C70.5309 202.14 67.014 190.518 66.0805 178.553C65.6234 171.835 66.0142 165.086 67.2437 158.465C76.6643 162.946 86.9072 166.489 86.9072 166.489Z" fill="#F2F2F2"/>
<path d="M227.56 228.029H105.841C102.265 228.029 99.3564 228.749 99.3564 229.639V277.24H234.061V229.639C234.061 228.749 231.153 228.029 227.56 228.029Z" fill="#F2F2F2"/>
<path d="M376.942 277.692L0.899754 277.846C0.741156 277.846 0.589057 277.783 0.476912 277.671C0.364767 277.559 0.301758 277.407 0.301758 277.248C0.301758 277.09 0.364767 276.938 0.476912 276.826C0.589057 276.713 0.741156 276.65 0.899754 276.65L376.942 276.496C377.1 276.497 377.252 276.56 377.364 276.672C377.475 276.784 377.538 276.936 377.538 277.094C377.538 277.252 377.475 277.404 377.364 277.516C377.252 277.628 377.1 277.691 376.942 277.692Z" fill="#CACACA"/>
<path d="M136.546 274.342L135.408 283.607L170.609 292.403L172.288 278.728L136.546 274.342Z" fill="#9E616A"/>
<path d="M163.369 275.381L166.653 274.864C163.128 278.535 159.743 280.96 156.528 281.714L158.085 276.21L163.369 275.381Z" fill="#2F2E41"/>
<path d="M143.265 272.097L142.332 287.007L135.989 286.229L124.541 299.109C123.976 299.745 123.222 300.184 122.389 300.361C121.557 300.539 120.689 300.445 119.914 300.095C119.138 299.745 118.495 299.155 118.078 298.414C117.66 297.672 117.491 296.816 117.595 295.971L119.758 278.349L126.405 276.082L120.277 274.126L121.093 267.481L143.265 272.097Z" fill="#2F2E41"/>
<path d="M239.381 278.904L248.44 281.161L261.459 247.3L248.089 243.968L239.381 278.904Z" fill="#9E616A"/>
<path d="M262.504 293.835L251.113 280.905L252.66 274.704L251.048 274.402H251.038L240.973 272.524L237.97 271.962L230.688 293.404L237.186 295.026L239.873 289.181L240.998 294.549L241.315 296.05L258.546 300.343C259.371 300.549 260.241 300.486 261.028 300.162C261.815 299.839 262.478 299.272 262.92 298.545C263.362 297.819 263.56 296.969 263.485 296.122C263.41 295.275 263.066 294.474 262.504 293.835Z" fill="#2F2E41"/>
<path d="M259.315 258.855C256.207 265.804 253.967 270.253 253.967 270.253L252.857 269.671L249.934 268.139L242.973 264.489L241.778 263.861L242.119 257.223L243.636 227.867L244.279 215.494L217.746 229.514L186.352 246.105C185.066 248.345 183.789 250.524 182.52 252.643L161.19 238.016L182.836 206.435L195.452 200.54L192.73 200.013C193.426 199.007 194.213 198.068 195.081 197.206L196.035 196.669C196.035 196.669 256.066 163.607 273.338 180.56C274.827 182.076 275.945 183.917 276.602 185.938C282.523 202.94 267.733 240.054 259.315 258.855Z" fill="#2F2E41"/>
<path d="M246.106 289.954C244.813 291.887 243.057 293.466 240.998 294.548C239.254 295.502 237.408 296.255 235.494 296.793C210.041 304.23 154.339 289.452 154.339 289.452L156.529 281.713L158.086 276.21L163.369 275.381L166.654 274.864L205.938 268.703L195.115 261.281L182.519 252.644L161.19 238.017L135.626 226.522C105.995 202.921 130.805 176.458 130.805 176.458L147.388 164.708L152.772 160.892L185.849 177.814L195.452 200.541L198.405 207.526L217.745 229.515L242.118 257.224L242.309 257.44C243.014 257.975 243.677 258.562 244.293 259.197C244.519 259.418 244.755 259.664 244.996 259.93C247.187 262.3 248.867 265.095 249.933 268.14C250.626 270.149 251.002 272.253 251.048 274.377C251.05 274.381 251.052 274.385 251.052 274.39C251.052 274.394 251.05 274.399 251.048 274.402C251.159 278.826 249.888 284.043 246.106 289.954Z" fill="#2F2E41"/>
<path d="M284.198 72.6265C284.378 73.6513 284.331 74.703 284.06 75.7077C283.789 76.7124 283.302 77.6455 282.631 78.4413C281.961 79.2371 281.124 79.8763 280.18 80.3139C279.236 80.7514 278.207 80.9767 277.167 80.9738L268.807 104.844L260.842 94.3896L270.001 73.3244C270.122 71.5769 270.88 69.9343 272.131 68.708C273.382 67.4816 275.04 66.7568 276.789 66.6708C278.539 66.5847 280.26 67.1435 281.625 68.2411C282.991 69.3388 283.906 70.8991 284.198 72.6265Z" fill="#9E616A"/>
<path d="M119.467 187.627C118.148 187.228 117.477 186.744 117.354 186.101C117.174 185.159 118.234 184.319 119.461 183.345C120.317 182.667 122.575 181.486 121.75 181.123C109.235 175.614 139.66 97.3998 148.488 88.5122C150.282 86.7064 150.068 83.0404 152.459 79.7788C158.989 70.8712 164.718 69.2573 176.132 66.043C177.058 65.782 178.024 65.5086 179.028 65.223C180.327 64.8524 178.957 68.5421 179.634 66.0683C180.387 63.319 181.165 60.4757 183.034 59.116L183.156 59.0273L183.306 59.037C186.764 59.2658 198.056 61.161 203.848 65.2494L203.928 65.3065L203.974 65.3926C205.042 67.3837 204.287 70.3882 203.556 73.2935C202.957 75.6787 204.399 71.9051 204.973 73.131C209.363 82.5017 216.91 84.6232 216.986 84.6446L217.361 84.7459L217.287 85.1268C219.259 95.3543 205.728 127.041 202.802 148.379C199.83 170.056 216.773 194.471 191.875 190.367C191.932 190.555 201.064 209.299 200.915 209.448C198.652 211.715 124.439 189.128 119.467 187.627Z" fill="#E6E6E6"/>
<path d="M247.408 139.146L232.256 135.87C204.925 127.217 195.554 116.539 192.499 109.103C189.239 101.169 192.21 95.3613 192.338 95.1187L192.416 95.014L202.218 85.4763C203.463 84.2648 204.951 83.3319 206.584 82.7392C208.218 82.1465 209.958 81.9077 211.69 82.0386C213.423 82.1695 215.108 82.667 216.633 83.4983C218.159 84.3296 219.49 85.4756 220.539 86.8603L240.444 113.139L249.661 100.653L254.132 97.0765L256.543 90.3177L265.792 80.2578L276.5 85.212L272.469 109.538L267.074 112.836L266.82 116.417L266.731 116.522L247.408 139.146Z" fill="#E6E6E6"/>
<path d="M171.491 215.379C171.417 215.379 171.342 215.378 171.266 215.375C170.386 215.343 169.526 215.099 168.761 214.663C167.995 214.228 167.346 213.614 166.868 212.874C163.292 207.53 158.904 202.777 153.861 198.786C150.809 196.347 147.619 194.079 144.534 191.885C136.576 186.227 129.082 180.899 124.921 173.536C115.851 157.481 126.533 135.12 141.793 125.091C158.909 113.844 181.422 112.079 203.202 111.848C205.465 111.824 207.73 111.812 209.996 111.813C249.238 111.828 288.397 115.408 326.991 122.508C339.824 124.876 353.257 127.776 364.052 134.814C374.783 141.81 381.305 152.827 380.669 162.883C379.74 177.562 364.177 188.53 350.005 191.398C336.497 194.129 322.464 192.283 307.608 190.329C304.329 189.898 300.938 189.451 297.584 189.064C261.14 184.852 192.676 197.834 189.78 198.389L186.906 198.939L175.756 213.285C175.255 213.939 174.609 214.468 173.869 214.831C173.129 215.195 172.316 215.382 171.491 215.379Z" fill="url(#paint0_linear_28_394)"/>
<path d="M197.696 184.906H179.745C178.857 184.905 178.005 184.552 177.378 183.923C176.75 183.295 176.397 182.443 176.397 181.555C176.397 180.667 176.75 179.815 177.378 179.187C178.005 178.559 178.857 178.205 179.745 178.204H197.696C198.584 178.205 199.435 178.559 200.063 179.187C200.691 179.815 201.043 180.667 201.043 181.555C201.043 182.443 200.691 183.295 200.063 183.923C199.435 184.552 198.584 184.905 197.696 184.906Z" fill="white"/>
<path d="M333.784 164.338H179.745C179.305 164.339 178.868 164.253 178.461 164.085C178.054 163.917 177.684 163.67 177.373 163.36C177.061 163.049 176.813 162.679 176.644 162.273C176.475 161.866 176.388 161.431 176.388 160.99C176.387 160.55 176.474 160.114 176.642 159.707C176.81 159.3 177.056 158.93 177.368 158.619C177.679 158.307 178.048 158.06 178.455 157.892C178.862 157.723 179.298 157.636 179.738 157.636H333.784C334.672 157.637 335.523 157.99 336.151 158.619C336.779 159.247 337.131 160.099 337.131 160.987C337.131 161.875 336.779 162.727 336.151 163.355C335.523 163.983 334.672 164.337 333.784 164.338Z" fill="white"/>
<path d="M166.488 169.48C165.462 169.31 164.485 168.918 163.626 168.329C162.768 167.741 162.049 166.972 161.52 166.076C160.991 165.18 160.665 164.179 160.565 163.143C160.465 162.108 160.593 161.063 160.941 160.082L141.185 144.287L153.69 140.236L170.533 155.856C172.142 156.549 173.441 157.808 174.184 159.395C174.927 160.981 175.062 162.785 174.563 164.465C174.065 166.144 172.967 167.582 171.479 168.506C169.991 169.431 168.215 169.777 166.488 169.48Z" fill="#9E616A"/>
<path d="M333.784 143.768H179.745C178.857 143.767 178.005 143.414 177.378 142.786C176.75 142.157 176.397 141.305 176.397 140.417C176.397 139.529 176.75 138.678 177.378 138.049C178.005 137.421 178.857 137.067 179.745 137.066H333.784C334.672 137.067 335.523 137.421 336.151 138.049C336.779 138.678 337.131 139.529 337.131 140.417C337.131 141.305 336.779 142.157 336.151 142.786C335.523 143.414 334.672 143.767 333.784 143.768Z" fill="white"/>
<path d="M115.905 112.736L124.017 99.5273C141.237 76.6114 154.418 71.3087 162.448 70.8901C171.015 70.4434 175.511 75.17 175.698 75.3716L175.771 75.4796L181.523 87.8866C182.254 89.4626 182.641 91.1758 182.66 92.9128C182.678 94.6498 182.326 96.3708 181.629 97.9618C180.932 99.5527 179.904 100.977 178.614 102.141C177.324 103.305 175.802 104.181 174.147 104.712L142.754 114.783L151.483 127.615L153.377 133.017L158.956 137.532L165.385 149.59L157.162 158.05L135.542 146.188L134.217 140.006L130.922 138.579L130.853 138.461L115.905 112.736Z" fill="#E6E6E6"/>
<path d="M284.478 73.5604C297.149 73.5604 307.421 63.2901 307.421 50.621C307.421 37.9519 297.149 27.6816 284.478 27.6816C271.807 27.6816 261.535 37.9519 261.535 50.621C261.535 63.2901 271.807 73.5604 284.478 73.5604Z" fill="white"/>
<path d="M284.479 73.8392C279.886 73.8392 275.396 72.4774 271.577 69.926C267.758 67.3747 264.781 63.7483 263.024 59.5055C261.266 55.2627 260.806 50.5941 261.702 46.09C262.598 41.5859 264.81 37.4485 268.058 34.2013C271.305 30.954 275.443 28.7425 279.948 27.8466C284.453 26.9506 289.122 27.4104 293.366 29.1678C297.609 30.9252 301.236 33.9013 303.788 37.7197C306.34 41.5381 307.702 46.0273 307.702 50.6197C307.695 56.7757 305.246 62.6776 300.892 67.0306C296.539 71.3836 290.636 73.8322 284.479 73.8392Z" fill="#3F3D56"/>
<path d="M282.762 59.7899C282.713 59.7899 282.664 59.7883 282.615 59.7859C282.183 59.7651 281.76 59.651 281.376 59.4516C280.992 59.2521 280.656 58.9721 280.391 58.6305L276.557 53.702C276.314 53.3909 276.136 53.0352 276.031 52.6552C275.927 52.2751 275.898 51.8782 275.947 51.487C275.996 51.0959 276.121 50.7182 276.316 50.3755C276.511 50.0328 276.771 49.7319 277.083 49.4899L277.221 49.3826C277.532 49.1404 277.888 48.9618 278.268 48.8572C278.648 48.7525 279.045 48.7238 279.437 48.7727C279.828 48.8216 280.206 48.9471 280.548 49.1421C280.891 49.3371 281.192 49.5977 281.434 49.909C281.628 50.1576 281.873 50.3615 282.153 50.5067C282.432 50.6519 282.74 50.735 283.055 50.7503C283.37 50.7656 283.684 50.7128 283.977 50.5955C284.269 50.4782 284.533 50.2991 284.75 50.0704L292.535 41.853C293.083 41.2759 293.837 40.9397 294.633 40.9181C295.429 40.8965 296.2 41.1912 296.779 41.7377L296.906 41.8594C297.193 42.1304 297.423 42.4552 297.583 42.8152C297.744 43.1751 297.832 43.5632 297.843 43.9572C297.854 44.3513 297.786 44.7435 297.645 45.1116C297.504 45.4797 297.292 45.8164 297.021 46.1025L284.94 58.8524C284.66 59.1486 284.322 59.3844 283.947 59.5456C283.573 59.7068 283.169 59.79 282.762 59.7899Z" fill="white"/>
<path d="M227.602 60.4096L227.622 60.4114C228.707 60.5051 229.785 60.164 230.619 59.4631C231.452 58.7622 231.973 57.7589 232.067 56.674L234.053 33.8468C234.413 29.7574 233.947 25.6374 232.682 21.7318C230.204 14.1092 224.879 7.73688 217.817 3.94293C214.171 1.98917 210.167 0.793792 206.046 0.428829C189.188 -1.06426 183.055 2.48486 172.818 28.2449C162.581 54.0049 170.829 51.1069 170.829 51.1069C170.78 51.6571 170.843 52.2113 171.013 52.7367C171.348 53.7616 172.065 54.6178 173.016 55.1263C173.504 55.3866 174.039 55.5462 174.59 55.5956C194.541 60.5255 214.674 65.7205 227.605 60.4099L227.602 60.4096Z" fill="#2F2E41"/>
<path d="M190.275 22.1489C187.799 25.8641 186.48 30.2296 186.484 34.6939C186.489 39.1582 187.816 43.5211 190.299 47.2315C192.782 50.942 196.308 53.8336 200.434 55.5412C204.559 57.2488 209.098 57.6957 213.478 56.8255C216.377 56.2589 219.135 55.1227 221.591 53.4828C224.048 51.8429 226.155 49.7319 227.79 47.2721C230.26 43.5581 231.575 39.196 231.57 34.7356C231.564 30.2753 230.238 25.9165 227.758 22.2088C225.278 18.5011 221.756 15.6105 217.635 13.9015C213.515 12.1925 208.98 11.7415 204.604 12.6056C201.702 13.169 198.942 14.3027 196.482 15.9411C194.022 17.5794 191.912 19.6898 190.275 22.1497L190.275 22.1489Z" fill="#9E616A"/>
<path d="M241.133 36.3346C241.417 33.1004 241.048 29.842 240.048 26.7531C239.771 19.1825 237.528 12.3386 228.293 12.6878C225.427 11.1537 222.283 10.2116 219.045 9.91752L214.478 9.49713C214.427 9.49237 214.375 9.48777 214.324 9.48334C207.933 8.93139 201.585 10.9404 196.676 15.0683C191.766 19.1962 188.698 25.105 188.146 31.4947L188.106 31.9519L197.77 32.8318L201.867 23.9113L201.724 33.1937L206.715 33.6501L208.781 29.1495L208.71 33.8296C216.159 40.3018 227.391 40.5692 241.089 36.7923L241.133 36.3346Z" fill="#2F2E41"/>
<path d="M210.385 58.1862C210.472 58.9373 210.347 59.6978 210.023 60.3812C209.86 60.7312 209.649 61.0566 209.395 61.348C209.179 61.5961 208.933 61.8178 208.664 62.0083C207.868 62.5705 206.897 62.8306 205.927 62.7419C205.866 62.7361 205.806 62.7291 205.745 62.7211C205.685 62.713 205.625 62.7035 205.565 62.6925C205.504 62.6821 205.444 62.6701 205.384 62.6563C205.325 62.6426 205.265 62.6277 205.205 62.6116L201.828 61.6897L197.98 51.1841L197.176 60.4303L181.821 56.2656L185.236 17.0283L211.375 19.4286L210.663 20.1231C208.298 22.4554 206.623 25.395 205.821 28.6181C205.026 31.8842 204.796 35.2624 205.142 38.6061C205.466 41.9872 206.115 45.3294 207.079 48.5866C207.918 51.4709 208.923 54.3044 210.088 57.0731C210.239 57.4284 210.339 57.8031 210.385 58.1862Z" fill="#2F2E41"/>
</g>
<defs>
<linearGradient id="paint0_linear_28_394" x1="251.148" y1="111.812" x2="251.148" y2="215.379" gradientUnits="userSpaceOnUse">
<stop stop-color="#1788EF"/>
<stop offset="1" stop-color="#075BA9"/>
</linearGradient>
<clipPath id="clip0_28_394">
<rect width="380.41" height="300.324" fill="white" transform="translate(0.301758 0.138672)"/>
</clipPath>
</defs>
</svg>
