<svg width="223" height="248" viewBox="0 0 223 248" fill="none" xmlns="http://www.w3.org/2000/svg">
<path d="M38.9128 80.3615V129.653C38.9128 129.653 99.2959 155.132 111.29 155.132C123.284 155.132 184.494 129.653 184.494 129.653V80.262L116.72 113.13C113.479 114.701 109.723 114.701 106.482 113.13L38.9128 80.3615Z" fill="url(#paint0_linear_106_961)"/>
<path d="M28.9865 41.1954H32.2952V52.2365L34.7767 71.7707L37.2582 85.3597H36.431L34.7767 93.0035H26.505L24.8507 85.3597H24.0235L26.505 71.7707L28.9865 52.2365V41.1954Z" fill="url(#paint1_linear_106_961)"/>
<path d="M116.721 1.45243C113.48 -0.119235 109.725 -0.119235 106.484 1.45243L43.6667 31.9158L110.664 52.7724C112.362 53.3011 113.33 55.1124 112.827 56.8183C112.319 58.5425 110.503 59.496 108.795 58.9366L36.647 35.32L2.46529 51.8966C0.176287 53.0066 0.176283 56.3505 2.46528 57.4605L106.484 107.905C109.725 109.476 113.48 109.476 116.721 107.905L220.74 57.4605C223.029 56.3505 223.029 53.0066 220.74 51.8966L116.721 1.45243Z" fill="url(#paint2_linear_106_961)"/>
<path d="M40.3998 222.134L37.8998 223.484V225.234C37.8664 227.567 37.9331 229.134 38.0998 229.934H31.5998C31.7331 228.534 31.7998 226.967 31.7998 225.234V201.334C31.7998 199 31.7331 197.417 31.5998 196.584H39.0998C42.8664 196.584 45.8998 197.634 48.1998 199.734C50.4998 201.8 51.6498 204.434 51.6498 207.634C51.6498 210.9 50.5164 213.884 48.2498 216.584C46.2498 218.917 43.6331 220.767 40.3998 222.134ZM39.2498 202.034H37.8998V216.984C39.8664 216.25 41.5664 215.1 42.9998 213.534C44.6664 211.767 45.4998 209.917 45.4998 207.984C45.4998 206.117 44.8498 204.634 43.5498 203.534C42.3831 202.534 40.9498 202.034 39.2498 202.034ZM64.0326 222.134L61.5826 223.484L61.5326 225.234C61.4992 227.567 61.5826 229.134 61.7826 229.934H55.2326C55.3659 228.534 55.4326 226.967 55.4326 225.234V201.334C55.4326 199 55.3659 197.417 55.2326 196.584H62.7826C66.5159 196.584 69.5326 197.634 71.8326 199.734C74.1326 201.8 75.2826 204.434 75.2826 207.634C75.2826 211.267 73.8992 214.517 71.1326 217.384L74.0826 226.184C74.5159 227.417 75.0326 228.667 75.6326 229.934H68.9326L66.3826 220.984C65.6492 221.417 64.8659 221.8 64.0326 222.134ZM62.8826 202.034H61.5326L61.5826 216.984C63.5159 216.25 65.2159 215.1 66.6826 213.534C68.3159 211.767 69.1326 209.917 69.1326 207.984C69.1326 206.117 68.4826 204.634 67.1826 203.534C66.0159 202.534 64.5826 202.034 62.8826 202.034ZM89.5654 230.534C86.0654 230.534 83.2487 229.384 81.1154 227.084C79.0154 224.784 77.9654 221.717 77.9654 217.884L78.0154 208.034C78.0154 204.6 79.082 201.734 81.2154 199.434C83.3487 197.134 86.182 195.984 89.7154 195.984C93.1487 195.984 95.9154 197.134 98.0154 199.434C100.115 201.734 101.149 204.6 101.115 208.034C101.115 208.967 101.132 212.25 101.165 217.884C101.165 221.517 100.132 224.5 98.0654 226.834C95.932 229.3 93.0987 230.534 89.5654 230.534ZM89.7654 201.334C86.1654 201.334 84.3487 204.184 84.3154 209.884V217.034C84.282 222.467 86.0487 225.184 89.6154 225.184C91.7154 225.184 93.182 224.3 94.0154 222.534C94.5487 221.3 94.8154 219.467 94.8154 217.034L94.8654 210.284C94.8654 204.317 93.1654 201.334 89.7654 201.334ZM129.356 202.034H125.806V225.334C125.806 227.7 125.873 229.234 126.006 229.934H119.456C119.59 229.034 119.656 227.467 119.656 225.234V202.034H116.106C114.206 202.034 112.973 202.084 112.406 202.184V196.584H133.056V202.184C132.423 202.084 131.19 202.034 129.356 202.034ZM135.794 229.934C135.928 229.1 135.994 227.834 135.994 226.134V200.934C135.994 198.634 135.928 197.184 135.794 196.584H152.294V202.184C151.594 202.084 150.361 202.034 148.594 202.034H142.094V209.834H146.844C148.278 209.834 149.394 209.784 150.194 209.684V215.184C149.528 215.084 148.561 215.034 147.294 215.034H142.094V224.484H149.144C150.544 224.484 151.778 224.434 152.844 224.334V229.934H135.794ZM161.059 230.384C159.159 230.384 157.026 229.934 154.659 229.034V222.634C157.159 223.967 159.292 224.634 161.059 224.634C162.626 224.634 163.959 224.334 165.059 223.734C166.426 223 167.109 221.95 167.109 220.584C167.109 219.617 167.026 218.9 166.859 218.434C166.559 217.667 165.959 217 165.059 216.434C164.159 215.867 162.526 214.817 160.159 213.284C158.159 211.984 156.726 210.667 155.859 209.334C155.026 208 154.609 206.384 154.609 204.484C154.609 198.984 157.859 196.234 164.359 196.234C166.659 196.234 168.926 196.75 171.159 197.784V203.584C169.059 202.25 166.826 201.584 164.459 201.584C162.026 201.584 160.809 202.484 160.809 204.284C160.809 205.65 161.609 206.834 163.209 207.834C164.709 208.8 166.192 209.75 167.659 210.684C169.826 212.084 171.359 213.567 172.259 215.134C173.092 216.567 173.509 218.284 173.509 220.284C173.509 223.784 172.242 226.417 169.709 228.184C167.542 229.65 164.659 230.384 161.059 230.384ZM191.808 202.034H188.258V225.334C188.258 227.7 188.324 229.234 188.458 229.934H181.908C182.041 229.034 182.108 227.467 182.108 225.234V202.034H178.558C176.658 202.034 175.424 202.084 174.858 202.184V196.584H195.508V202.184C194.874 202.084 193.641 202.034 191.808 202.034Z" fill="url(#paint3_linear_106_961)"/>
<defs>
<linearGradient id="paint0_linear_106_961" x1="111.602" y1="0.273682" x2="111.602" y2="155.132" gradientUnits="userSpaceOnUse">
<stop stop-color="#1788EF"/>
<stop offset="1" stop-color="#075BA9"/>
</linearGradient>
<linearGradient id="paint1_linear_106_961" x1="111.602" y1="0.273682" x2="111.602" y2="155.132" gradientUnits="userSpaceOnUse">
<stop stop-color="#1788EF"/>
<stop offset="1" stop-color="#075BA9"/>
</linearGradient>
<linearGradient id="paint2_linear_106_961" x1="111.602" y1="0.273682" x2="111.602" y2="155.132" gradientUnits="userSpaceOnUse">
<stop stop-color="#1788EF"/>
<stop offset="1" stop-color="#075BA9"/>
</linearGradient>
<linearGradient id="paint3_linear_106_961" x1="112.5" y1="182.934" x2="112.5" y2="247.934" gradientUnits="userSpaceOnUse">
<stop stop-color="#1788EF"/>
<stop offset="1" stop-color="#075BA9"/>
</linearGradient>
</defs>
</svg>
